<mxfile host="Electron" modified="2023-05-03T12:56:36.910Z" agent="Mozilla/5.0 (Windows NT 10.0; Win64; x64) AppleWebKit/537.36 (KHTML, like Gecko) draw.io/21.2.1 Chrome/112.0.5615.87 Electron/24.1.2 Safari/537.36" etag="JyId1QrKUyM3Ga19ksHV" version="21.2.1" type="device">
  <diagram name="Page-1" id="MuWw8hlP-7gh3ki9MRSE">
    <mxGraphModel dx="1434" dy="854" grid="1" gridSize="10" guides="1" tooltips="1" connect="1" arrows="1" fold="1" page="1" pageScale="1" pageWidth="827" pageHeight="1169" math="0" shadow="0">
      <root>
        <mxCell id="0" />
        <mxCell id="1" parent="0" />
        <mxCell id="n9vFjWYDE5SBtBu7MkNS-1" value="Admin&amp;nbsp;" style="shape=umlActor;verticalLabelPosition=bottom;verticalAlign=top;html=1;points=[[0,0.3333333333333333,0,0,0],[0,1,0,0,0],[0.25,0.1,0,0,0],[0.5,0,0,0,0],[0.5,0.5,0,0,0],[0.55,1,0,0,31],[0.75,0.1,0,0,0],[1,0.3333333333333333,0,0,0],[1,1,0,0,0]];" parent="1" vertex="1">
          <mxGeometry x="160" y="40" width="30" height="60" as="geometry" />
        </mxCell>
        <mxCell id="n9vFjWYDE5SBtBu7MkNS-2" value="" style="rounded=0;orthogonalLoop=1;jettySize=auto;html=1;dashed=1;endArrow=none;endFill=0;exitX=0.4;exitY=1.004;exitDx=0;exitDy=0;exitPerimeter=0;" parent="1" source="XHaJMQ223y7ecORCb2w3-7" edge="1">
          <mxGeometry relative="1" as="geometry">
            <mxPoint x="174.82" y="110" as="sourcePoint" />
            <mxPoint x="175" y="1120" as="targetPoint" />
          </mxGeometry>
        </mxCell>
        <mxCell id="n9vFjWYDE5SBtBu7MkNS-8" value=":User" style="shape=umlLifeline;perimeter=lifelinePerimeter;whiteSpace=wrap;html=1;container=1;collapsible=0;recursiveResize=0;outlineConnect=0;rounded=1;shadow=0;comic=0;labelBackgroundColor=none;strokeWidth=1;fontFamily=Verdana;fontSize=14;align=center;" parent="1" vertex="1">
          <mxGeometry x="380" y="40" width="100" height="1078" as="geometry" />
        </mxCell>
        <mxCell id="n9vFjWYDE5SBtBu7MkNS-9" value="" style="html=1;points=[[0,0,0,0,0]];perimeter=orthogonalPerimeter;rounded=0;shadow=0;comic=0;labelBackgroundColor=none;strokeWidth=1;fontFamily=Verdana;fontSize=12;align=center;" parent="n9vFjWYDE5SBtBu7MkNS-8" vertex="1">
          <mxGeometry x="45" y="165" width="10" height="145" as="geometry" />
        </mxCell>
        <mxCell id="oxki4I--b6i6RUjRe9Un-8" value="" style="html=1;points=[[0,0,0,0,0]];perimeter=orthogonalPerimeter;rounded=0;shadow=0;comic=0;labelBackgroundColor=none;strokeWidth=1;fontFamily=Verdana;fontSize=12;align=center;" parent="n9vFjWYDE5SBtBu7MkNS-8" vertex="1">
          <mxGeometry x="44" y="451" width="10" height="115" as="geometry" />
        </mxCell>
        <mxCell id="oxki4I--b6i6RUjRe9Un-17" value="" style="html=1;points=[[0,0,0,0,0]];perimeter=orthogonalPerimeter;rounded=0;shadow=0;comic=0;labelBackgroundColor=none;strokeWidth=1;fontFamily=Verdana;fontSize=12;align=center;" parent="n9vFjWYDE5SBtBu7MkNS-8" vertex="1">
          <mxGeometry x="44.99999999999994" y="641" width="10" height="115" as="geometry" />
        </mxCell>
        <mxCell id="XHaJMQ223y7ecORCb2w3-23" value="" style="html=1;points=[[0,0,0,0,0]];perimeter=orthogonalPerimeter;rounded=0;shadow=0;comic=0;labelBackgroundColor=none;strokeWidth=1;fontFamily=Verdana;fontSize=12;align=center;" vertex="1" parent="n9vFjWYDE5SBtBu7MkNS-8">
          <mxGeometry x="45" y="810" width="10" height="115" as="geometry" />
        </mxCell>
        <mxCell id="n9vFjWYDE5SBtBu7MkNS-13" value="&lt;font style=&quot;font-size: 12px;&quot;&gt;SignUp()&lt;/font&gt;" style="html=1;verticalAlign=bottom;endArrow=block;elbow=vertical;rounded=0;fontSize=14;" parent="1" edge="1">
          <mxGeometry x="0.0006" width="80" relative="1" as="geometry">
            <mxPoint x="178.82" y="210" as="sourcePoint" />
            <mxPoint x="426" y="210" as="targetPoint" />
            <mxPoint as="offset" />
          </mxGeometry>
        </mxCell>
        <mxCell id="oxki4I--b6i6RUjRe9Un-1" value="alt" style="shape=umlFrame;whiteSpace=wrap;html=1;pointerEvents=0;" parent="1" vertex="1">
          <mxGeometry x="73" y="145" width="460" height="240" as="geometry" />
        </mxCell>
        <mxCell id="oxki4I--b6i6RUjRe9Un-2" value="If [User Exist]" style="text;html=1;strokeColor=none;fillColor=none;align=center;verticalAlign=middle;whiteSpace=wrap;rounded=0;" parent="1" vertex="1">
          <mxGeometry x="73" y="280" width="90" height="20" as="geometry" />
        </mxCell>
        <mxCell id="oxki4I--b6i6RUjRe9Un-3" value="&lt;font style=&quot;font-size: 12px;&quot;&gt;User already exist&lt;/font&gt;" style="html=1;verticalAlign=bottom;endArrow=open;dashed=1;endSize=8;edgeStyle=elbowEdgeStyle;elbow=vertical;curved=0;rounded=0;exitX=-0.182;exitY=0.379;exitDx=0;exitDy=0;exitPerimeter=0;" parent="1" source="n9vFjWYDE5SBtBu7MkNS-9" edge="1">
          <mxGeometry x="0.0091" y="90" relative="1" as="geometry">
            <mxPoint x="441" y="260" as="sourcePoint" />
            <mxPoint x="179" y="260" as="targetPoint" />
            <mxPoint as="offset" />
          </mxGeometry>
        </mxCell>
        <mxCell id="oxki4I--b6i6RUjRe9Un-4" value="If [User not Exist]" style="text;html=1;strokeColor=none;fillColor=none;align=center;verticalAlign=middle;whiteSpace=wrap;rounded=0;" parent="1" vertex="1">
          <mxGeometry x="76" y="180" width="100" height="20" as="geometry" />
        </mxCell>
        <mxCell id="oxki4I--b6i6RUjRe9Un-5" value="" style="html=1;verticalAlign=bottom;endArrow=none;dashed=1;endSize=8;elbow=vertical;rounded=0;endFill=0;exitX=1;exitY=0.542;exitDx=0;exitDy=0;exitPerimeter=0;entryX=-0.002;entryY=0.538;entryDx=0;entryDy=0;entryPerimeter=0;" parent="1" source="oxki4I--b6i6RUjRe9Un-1" target="oxki4I--b6i6RUjRe9Un-1" edge="1">
          <mxGeometry relative="1" as="geometry">
            <mxPoint x="391" y="275" as="sourcePoint" />
            <mxPoint x="91" y="275" as="targetPoint" />
          </mxGeometry>
        </mxCell>
        <mxCell id="oxki4I--b6i6RUjRe9Un-6" value="&lt;font style=&quot;font-size: 12px;&quot;&gt;Sign up Successfulyl&lt;/font&gt;" style="html=1;verticalAlign=bottom;endArrow=open;dashed=1;endSize=8;edgeStyle=elbowEdgeStyle;elbow=vertical;curved=0;rounded=0;" parent="1" edge="1">
          <mxGeometry x="-0.0083" y="-90" relative="1" as="geometry">
            <mxPoint x="420" y="350" as="sourcePoint" />
            <mxPoint x="178" y="350" as="targetPoint" />
            <mxPoint as="offset" />
          </mxGeometry>
        </mxCell>
        <mxCell id="oxki4I--b6i6RUjRe9Un-7" value="&lt;font style=&quot;font-size: 12px;&quot;&gt;SignIn(string, string)&lt;/font&gt;" style="html=1;verticalAlign=bottom;endArrow=block;elbow=vertical;rounded=0;" parent="1" edge="1">
          <mxGeometry width="80" relative="1" as="geometry">
            <mxPoint x="178" y="491" as="sourcePoint" />
            <mxPoint x="424" y="490" as="targetPoint" />
          </mxGeometry>
        </mxCell>
        <mxCell id="oxki4I--b6i6RUjRe9Un-9" value="alt" style="shape=umlFrame;whiteSpace=wrap;html=1;pointerEvents=0;" parent="1" vertex="1">
          <mxGeometry x="73" y="425" width="460" height="206" as="geometry" />
        </mxCell>
        <mxCell id="oxki4I--b6i6RUjRe9Un-10" value="If [User Verify &lt;br&gt;Success]" style="text;html=1;strokeColor=none;fillColor=none;align=left;verticalAlign=middle;whiteSpace=wrap;rounded=0;" parent="1" vertex="1">
          <mxGeometry x="82" y="461" width="80" height="30" as="geometry" />
        </mxCell>
        <mxCell id="oxki4I--b6i6RUjRe9Un-11" value="&lt;font style=&quot;font-size: 12px;&quot;&gt;User Signin Successfully&lt;/font&gt;" style="html=1;verticalAlign=bottom;endArrow=open;dashed=1;endSize=8;edgeStyle=elbowEdgeStyle;elbow=vertical;curved=0;rounded=0;" parent="1" edge="1">
          <mxGeometry relative="1" as="geometry">
            <mxPoint x="423" y="531" as="sourcePoint" />
            <mxPoint x="180" y="531" as="targetPoint" />
          </mxGeometry>
        </mxCell>
        <mxCell id="oxki4I--b6i6RUjRe9Un-12" value="" style="html=1;verticalAlign=bottom;endArrow=none;dashed=1;endSize=8;elbow=vertical;rounded=0;endFill=0;entryX=-0.002;entryY=0.538;entryDx=0;entryDy=0;entryPerimeter=0;" parent="1" edge="1">
          <mxGeometry relative="1" as="geometry">
            <mxPoint x="529" y="546" as="sourcePoint" />
            <mxPoint x="79" y="546" as="targetPoint" />
          </mxGeometry>
        </mxCell>
        <mxCell id="oxki4I--b6i6RUjRe9Un-13" value="else" style="text;html=1;strokeColor=none;fillColor=none;align=left;verticalAlign=middle;whiteSpace=wrap;rounded=0;" parent="1" vertex="1">
          <mxGeometry x="82" y="551" width="50" height="20" as="geometry" />
        </mxCell>
        <mxCell id="oxki4I--b6i6RUjRe9Un-14" value="&lt;font style=&quot;font-size: 12px;&quot;&gt;return signin failed&lt;/font&gt;" style="html=1;verticalAlign=bottom;endArrow=open;dashed=1;endSize=8;edgeStyle=elbowEdgeStyle;elbow=vertical;curved=0;rounded=0;exitX=-0.233;exitY=0.951;exitDx=0;exitDy=0;exitPerimeter=0;" parent="1" edge="1" source="oxki4I--b6i6RUjRe9Un-8">
          <mxGeometry relative="1" as="geometry">
            <mxPoint x="419" y="601" as="sourcePoint" />
            <mxPoint x="180" y="601" as="targetPoint" />
          </mxGeometry>
        </mxCell>
        <mxCell id="oxki4I--b6i6RUjRe9Un-15" value="&lt;font style=&quot;font-size: 12px;&quot;&gt;changePassword()&lt;/font&gt;" style="html=1;verticalAlign=bottom;endArrow=block;elbow=vertical;rounded=0;entryX=0;entryY=0;entryDx=0;entryDy=0;entryPerimeter=0;" parent="1" edge="1" target="oxki4I--b6i6RUjRe9Un-17">
          <mxGeometry width="80" relative="1" as="geometry">
            <mxPoint x="179" y="681" as="sourcePoint" />
            <mxPoint x="422" y="681" as="targetPoint" />
          </mxGeometry>
        </mxCell>
        <mxCell id="oxki4I--b6i6RUjRe9Un-16" value="&lt;font style=&quot;font-size: 12px;&quot;&gt;password changed&lt;/font&gt;" style="html=1;verticalAlign=bottom;endArrow=open;dashed=1;endSize=8;edgeStyle=elbowEdgeStyle;elbow=vertical;curved=0;rounded=0;" parent="1" edge="1">
          <mxGeometry relative="1" as="geometry">
            <mxPoint x="420" y="796" as="sourcePoint" />
            <mxPoint x="181" y="796" as="targetPoint" />
          </mxGeometry>
        </mxCell>
        <mxCell id="XHaJMQ223y7ecORCb2w3-1" value="DATABASE" style="shape=umlLifeline;perimeter=lifelinePerimeter;whiteSpace=wrap;html=1;container=1;collapsible=0;recursiveResize=0;outlineConnect=0;rounded=1;shadow=0;comic=0;labelBackgroundColor=none;strokeWidth=1;fontFamily=Verdana;fontSize=14;align=center;" vertex="1" parent="1">
          <mxGeometry x="680" y="40" width="100" height="1078" as="geometry" />
        </mxCell>
        <mxCell id="XHaJMQ223y7ecORCb2w3-2" value="" style="html=1;points=[[0,0,0,0,0]];perimeter=orthogonalPerimeter;rounded=0;shadow=0;comic=0;labelBackgroundColor=none;strokeWidth=1;fontFamily=Verdana;fontSize=12;align=center;" vertex="1" parent="XHaJMQ223y7ecORCb2w3-1">
          <mxGeometry x="45" y="175" width="10" height="98" as="geometry" />
        </mxCell>
        <mxCell id="XHaJMQ223y7ecORCb2w3-3" value="" style="html=1;points=[[0,0,0,0,0]];perimeter=orthogonalPerimeter;rounded=0;shadow=0;comic=0;labelBackgroundColor=none;strokeWidth=1;fontFamily=Verdana;fontSize=12;align=center;" vertex="1" parent="XHaJMQ223y7ecORCb2w3-1">
          <mxGeometry x="44" y="456" width="10" height="90" as="geometry" />
        </mxCell>
        <mxCell id="XHaJMQ223y7ecORCb2w3-4" value="" style="html=1;points=[[0,0,0,0,0]];perimeter=orthogonalPerimeter;rounded=0;shadow=0;comic=0;labelBackgroundColor=none;strokeWidth=1;fontFamily=Verdana;fontSize=12;align=center;" vertex="1" parent="XHaJMQ223y7ecORCb2w3-1">
          <mxGeometry x="45" y="666" width="10" height="73" as="geometry" />
        </mxCell>
        <mxCell id="XHaJMQ223y7ecORCb2w3-26" value="" style="html=1;points=[[0,0,0,0,0]];perimeter=orthogonalPerimeter;rounded=0;shadow=0;comic=0;labelBackgroundColor=none;strokeWidth=1;fontFamily=Verdana;fontSize=12;align=center;" vertex="1" parent="XHaJMQ223y7ecORCb2w3-1">
          <mxGeometry x="45" y="830" width="10" height="73" as="geometry" />
        </mxCell>
        <mxCell id="XHaJMQ223y7ecORCb2w3-5" value="&lt;font style=&quot;font-size: 12px;&quot;&gt;addUser()&lt;/font&gt;" style="html=1;verticalAlign=bottom;endArrow=block;elbow=vertical;rounded=0;exitX=1.1;exitY=0.17;exitDx=0;exitDy=0;exitPerimeter=0;entryX=0.033;entryY=0.17;entryDx=0;entryDy=0;entryPerimeter=0;" edge="1" parent="1">
          <mxGeometry x="-0.0046" width="80" relative="1" as="geometry">
            <mxPoint x="436" y="216.64999999999998" as="sourcePoint" />
            <mxPoint x="725.3299999999999" y="216.64999999999998" as="targetPoint" />
            <mxPoint as="offset" />
          </mxGeometry>
        </mxCell>
        <mxCell id="XHaJMQ223y7ecORCb2w3-6" value="User Added" style="html=1;verticalAlign=bottom;endArrow=open;dashed=1;endSize=8;elbow=vertical;rounded=0;" edge="1" parent="1">
          <mxGeometry x="-0.0034" y="-1" relative="1" as="geometry">
            <mxPoint x="723" y="312" as="sourcePoint" />
            <mxPoint x="436" y="310" as="targetPoint" />
            <mxPoint as="offset" />
          </mxGeometry>
        </mxCell>
        <mxCell id="XHaJMQ223y7ecORCb2w3-8" value="" style="rounded=0;orthogonalLoop=1;jettySize=auto;html=1;dashed=1;endArrow=none;endFill=0;exitX=0.55;exitY=1;exitDx=0;exitDy=31;exitPerimeter=0;" edge="1" parent="1" source="n9vFjWYDE5SBtBu7MkNS-1" target="XHaJMQ223y7ecORCb2w3-7">
          <mxGeometry relative="1" as="geometry">
            <mxPoint x="177" y="131" as="sourcePoint" />
            <mxPoint x="178.82" y="1120" as="targetPoint" />
          </mxGeometry>
        </mxCell>
        <mxCell id="XHaJMQ223y7ecORCb2w3-7" value="" style="html=1;points=[[0,0,0,0,0]];perimeter=orthogonalPerimeter;rounded=0;shadow=0;comic=0;labelBackgroundColor=none;strokeWidth=1;fontFamily=Verdana;fontSize=12;align=center;" vertex="1" parent="1">
          <mxGeometry x="171" y="206" width="10" height="814" as="geometry" />
        </mxCell>
        <mxCell id="XHaJMQ223y7ecORCb2w3-10" value="&lt;font style=&quot;font-size: 12px;&quot;&gt;verifyLogin()&lt;/font&gt;" style="html=1;verticalAlign=bottom;endArrow=block;elbow=vertical;rounded=0;exitX=1.1;exitY=0.17;exitDx=0;exitDy=0;exitPerimeter=0;entryX=0.033;entryY=0.17;entryDx=0;entryDy=0;entryPerimeter=0;" edge="1" parent="1">
          <mxGeometry x="0.0023" width="80" relative="1" as="geometry">
            <mxPoint x="434" y="497" as="sourcePoint" />
            <mxPoint x="723.3299999999999" y="497" as="targetPoint" />
            <mxPoint as="offset" />
          </mxGeometry>
        </mxCell>
        <mxCell id="XHaJMQ223y7ecORCb2w3-11" value="&lt;font style=&quot;font-size: 12px;&quot;&gt;User Verify Successful&lt;/font&gt;" style="html=1;verticalAlign=bottom;endArrow=open;dashed=1;endSize=8;elbow=vertical;rounded=0;" edge="1" parent="1">
          <mxGeometry x="-0.0034" y="-1" relative="1" as="geometry">
            <mxPoint x="722" y="584" as="sourcePoint" />
            <mxPoint x="435" y="582" as="targetPoint" />
            <mxPoint as="offset" />
          </mxGeometry>
        </mxCell>
        <mxCell id="XHaJMQ223y7ecORCb2w3-13" value="&lt;font style=&quot;font-size: 12px;&quot;&gt;editUser()&lt;/font&gt;" style="html=1;verticalAlign=bottom;endArrow=block;elbow=vertical;rounded=0;exitX=1.1;exitY=0.17;exitDx=0;exitDy=0;exitPerimeter=0;entryX=0.033;entryY=0.17;entryDx=0;entryDy=0;entryPerimeter=0;" edge="1" parent="1">
          <mxGeometry x="-0.0046" width="80" relative="1" as="geometry">
            <mxPoint x="436" y="706" as="sourcePoint" />
            <mxPoint x="725.3299999999999" y="706" as="targetPoint" />
            <mxPoint as="offset" />
          </mxGeometry>
        </mxCell>
        <mxCell id="XHaJMQ223y7ecORCb2w3-14" value="&lt;span style=&quot;font-size: 12px;&quot;&gt;User Edited&lt;/span&gt;" style="html=1;verticalAlign=bottom;endArrow=open;dashed=1;endSize=8;elbow=vertical;rounded=0;" edge="1" parent="1">
          <mxGeometry x="-0.0034" y="-1" relative="1" as="geometry">
            <mxPoint x="724" y="778" as="sourcePoint" />
            <mxPoint x="437" y="776" as="targetPoint" />
            <mxPoint as="offset" />
          </mxGeometry>
        </mxCell>
        <mxCell id="XHaJMQ223y7ecORCb2w3-24" value="&lt;font style=&quot;font-size: 12px;&quot;&gt;deleteUser()&lt;/font&gt;" style="html=1;verticalAlign=bottom;endArrow=block;elbow=vertical;rounded=0;entryX=0;entryY=0;entryDx=0;entryDy=0;entryPerimeter=0;exitX=1.3;exitY=0.791;exitDx=0;exitDy=0;exitPerimeter=0;" edge="1" parent="1" target="XHaJMQ223y7ecORCb2w3-23" source="XHaJMQ223y7ecORCb2w3-7">
          <mxGeometry width="80" relative="1" as="geometry">
            <mxPoint x="827" y="870" as="sourcePoint" />
            <mxPoint x="1070" y="870" as="targetPoint" />
          </mxGeometry>
        </mxCell>
        <mxCell id="XHaJMQ223y7ecORCb2w3-25" value="&lt;font style=&quot;font-size: 12px;&quot;&gt;User Deleted&lt;/font&gt;" style="html=1;verticalAlign=bottom;endArrow=open;dashed=1;endSize=8;edgeStyle=elbowEdgeStyle;elbow=vertical;curved=0;rounded=0;" edge="1" parent="1">
          <mxGeometry relative="1" as="geometry">
            <mxPoint x="422.5" y="960" as="sourcePoint" />
            <mxPoint x="183.5" y="960" as="targetPoint" />
          </mxGeometry>
        </mxCell>
        <mxCell id="XHaJMQ223y7ecORCb2w3-27" value="&lt;font style=&quot;font-size: 12px;&quot;&gt;editUser()&lt;/font&gt;" style="html=1;verticalAlign=bottom;endArrow=block;elbow=vertical;rounded=0;exitX=1.1;exitY=0.17;exitDx=0;exitDy=0;exitPerimeter=0;entryX=0.033;entryY=0.17;entryDx=0;entryDy=0;entryPerimeter=0;" edge="1" parent="1">
          <mxGeometry x="-0.0046" width="80" relative="1" as="geometry">
            <mxPoint x="436" y="869" as="sourcePoint" />
            <mxPoint x="725.3299999999999" y="869" as="targetPoint" />
            <mxPoint as="offset" />
          </mxGeometry>
        </mxCell>
        <mxCell id="XHaJMQ223y7ecORCb2w3-28" value="&lt;span style=&quot;font-size: 12px;&quot;&gt;User Edited&lt;/span&gt;" style="html=1;verticalAlign=bottom;endArrow=open;dashed=1;endSize=8;elbow=vertical;rounded=0;" edge="1" parent="1">
          <mxGeometry x="-0.0034" y="-1" relative="1" as="geometry">
            <mxPoint x="727" y="942" as="sourcePoint" />
            <mxPoint x="440" y="940" as="targetPoint" />
            <mxPoint as="offset" />
          </mxGeometry>
        </mxCell>
      </root>
    </mxGraphModel>
  </diagram>
</mxfile>
